# xmcd
#
# Track frame offsets: 
#        150
#        12418
#        24699
#        43304
#        55979
#        67616
#        85641
#        99796
#        115834
#        132412
#        143091
#        159742
#        173601
#        192812
#        209370
#
# Disc length: 2947 seconds
#
# Revision: 0
# Processed by: cddbd v1.5.2PL0 Copyright (c) Steve Scherf et al.
# Submitted via: ExactAudioCopyFreeDBPlugin 1.0
#
DISCID=c30b810f
DTITLE=Bob Wayne - Till The Wheels Fall Off
DYEAR=2012
DGENRE=Country
TTITLE0=Till The Wheels Fall Off
TTITLE1=There Aint No Disel Trucks In Heaven
TTITLE2=All My Friends
TTITLE3=Get There When I Get There
TTITLE4=Fuck The Law
TTITLE5=Lyza
TTITLE6=Devils Son
TTITLE7=Wives Of Three
TTITLE8=Lost Vegas
TTITLE9=All those One Night Stands
TTITLE10=Hunger In My Soul
TTITLE11=A Pistol And A 100 Dollar Bill
TTITLE12=Spread My Ashes On The Highway
TTITLE13=I Cant Explain
TTITLE14=Fuck The Law (German Version)
EXTD=
EXTT0=
EXTT1=
EXTT2=
EXTT3=
EXTT4=
EXTT5=
EXTT6=
EXTT7=
EXTT8=
EXTT9=
EXTT10=
EXTT11=
EXTT12=
EXTT13=
EXTT14=
PLAYORDER=
